<svg xmlns="http://www.w3.org/2000/svg" version="1.1" xmlns:xlink="http://www.w3.org/1999/xlink" xmlns:svgjs="http://svgjs.dev/svgjs" width="100%" height="100%" viewBox="0 0 1000 600"><rect width="1000" height="600" x="0" y="0" fill="#ff6be1"/><g><rect width="333.3333333333333" height="333.3333333333333" y="282.7949053235576" fill="#ad2692" transform="matrix(0.47971250979198327,0,0,0.47971250979198327,0,84.3876310375038)" x="260.5726013183594"/><path d="M363.3948011198755 489.57786686192725L320.4926680682581 489.57786686192725L320.4926680682581 484.5148822160842Q326.936466708422 484.5148822160842 329.7465443108995 483.81236281546484Q332.53239710645903 483.13406822176336 333.2349165070784 481.0265100199053Q333.9132111007799 478.943176624965 333.9132111007799 474.75228502816674L333.9132111007799 474.75228502816674L333.9132111007799 389.45673987020797Q333.9132111007799 385.26584827340963 333.2349165070784 383.1825148784694Q332.53239710645903 381.09918148352926 329.7465443108995 380.2997628552382Q326.936466708422 379.52456903386513 320.4926680682581 379.52456903386513L320.4926680682581 379.52456903386513L320.4926680682581 374.46158438802206L363.3948011198755 374.46158438802206L363.3948011198755 379.52456903386513Q357.12057612813703 379.52456903386513 354.2378241049058 380.2997628552382Q351.3550720816746 381.09918148352926 350.67677748797314 383.1825148784694Q349.97425808735375 385.26584827340963 349.97425808735375 389.45673987020797L349.97425808735375 389.45673987020797L349.97425808735375 426.2542215785123L406.12736052306764 426.2542215785123L406.12736052306764 389.45673987020797Q406.12736052306764 385.26584827340963 405.42484112244824 383.1825148784694Q404.7465465287468 381.09918148352926 401.9364689262693 380.2997628552382Q399.15061613070975 379.52456903386513 392.70681749054586 379.52456903386513L392.70681749054586 379.52456903386513L392.70681749054586 374.46158438802206L435.6089505421633 374.46158438802206L435.6089505421633 379.52456903386513Q429.33472555042476 379.52456903386513 426.45197352719356 380.2997628552382Q423.56922150396235 381.09918148352926 422.86670210334296 383.1825148784694Q422.18840750964154 385.26584827340963 422.18840750964154 389.45673987020797L422.18840750964154 389.45673987020797L422.18840750964154 474.75228502816674Q422.18840750964154 478.943176624965 422.9636013310146 481.0265100199053Q423.73879515238775 483.13406822176336 426.5488727548652 483.81236281546484Q429.33472555042476 484.5148822160842 435.6089505421633 484.5148822160842L435.6089505421633 484.5148822160842L435.6089505421633 489.57786686192725L392.70681749054586 489.57786686192725L392.70681749054586 484.5148822160842Q399.15061613070975 484.5148822160842 401.9364689262693 483.81236281546484Q404.7465465287468 483.13406822176336 405.42484112244824 481.0265100199053Q406.12736052306764 478.943176624965 406.12736052306764 474.75228502816674L406.12736052306764 474.75228502816674L406.12736052306764 432.8918186740194L349.97425808735375 432.8918186740194L349.97425808735375 474.75228502816674Q349.97425808735375 478.943176624965 350.67677748797314 481.0265100199053Q351.3550720816746 483.13406822176336 354.2378241049058 483.81236281546484Q357.12057612813703 484.5148822160842 363.3948011198755 484.5148822160842L363.3948011198755 484.5148822160842L363.3948011198755 489.57786686192725ZM489.3395722860862 524.4615888237167L449.73201297530443 524.4615888237167L449.73201297530443 519.3986041778737Q455.49751702176684 519.3986041778737 457.9442225204757 518.792984004926Q460.36670321226666 518.1873638319782 460.9965481921323 516.0798056301201Q461.60216836508005 513.9964722351799 461.60216836508005 509.9751542868069L461.60216836508005 509.9751542868069L461.60216836508005 422.4267020854826Q461.60216836508005 418.23581048868425 460.5605016676099 416.85499649436343Q459.49461016322186 415.4499576931247 455.66709067019224 415.4499576931247L455.66709067019224 415.4499576931247L450.4345323759238 415.4499576931247L450.4345323759238 410.38697304728163L471.1951919045721 406.8986008511027L475.8948044466465 406.8986008511027L475.8948044466465 415.4499576931247L476.4277501988405 415.4499576931247L476.4277501988405 509.9751542868069Q476.4277501988405 513.9964722351799 477.20294402021364 516.0798056301201Q478.0023626485047 518.1873638319782 480.6913162163926 518.792984004926Q483.4044945911984 519.3986041778737 489.3395722860862 519.3986041778737L489.3395722860862 519.3986041778737L489.3395722860862 524.4615888237167ZM497.1884097274889 491.66120025686746L497.1884097274889 491.66120025686746Q490.55081263198167 491.66120025686746 485.923874510661 489.84433973802425Q481.2969363893403 488.0032544122632 478.0023626485047 485.3143008443752Q474.683564100751 482.60112246956936 471.70391284984817 480.1544169708605L471.70391284984817 480.1544169708605L471.70391284984817 471.09433918356245Q473.44809894793764 473.7106183306966 475.7252307982212 476.39957189858455Q478.0023626485047 479.1127502733904 480.95778909248963 481.29298289600223Q483.9132155364745 483.4732155186141 487.4984869603251 484.78135509218123Q491.08375838417567 486.0894946657483 495.2504251740561 486.0894946657483L495.2504251740561 486.0894946657483Q506.0789138663615 486.0894946657483 511.9170923335777 477.19899052687555Q517.7552708007938 468.30848638800285 517.7552708007938 449.12243930901866L517.7552708007938 449.12243930901866Q517.7552708007938 432.35887292182537 512.6922861549508 422.76584938233333Q507.6535263160257 413.1728258428412 496.4858903268695 413.1728258428412L496.4858903268695 413.1728258428412Q490.72038628040707 413.1728258428412 486.02077373833265 415.4499576931247Q481.2969363893403 417.72708954340817 478.17193629692997 420.4160431112961Q475.0227113976018 423.1292214861019 473.44809894793764 424.5100354804228L473.44809894793764 424.5100354804228L473.44809894793764 417.8966631918335Q475.1922850460271 415.9829034453187 478.9471301183031 413.1728258428412Q482.7019751905791 410.38697304728163 488.63705288546686 408.20674042466976Q494.5721305803546 406.02650780205795 502.227169566414 406.02650780205795L502.227169566414 406.02650780205795Q517.7552708007938 406.02650780205795 525.8705811182936 416.32205074216944Q533.9858914357931 426.61759368228087 533.9858914357931 446.8453074587352L533.9858914357931 446.8453074587352Q533.9858914357931 462.37340869311504 529.3589533144725 472.30557952945793Q524.7320151931517 482.2619751727186 516.5440304548985 486.96158771479304Q508.3318209097271 491.66120025686746 497.1884097274889 491.66120025686746Z " fill="#75fa50" transform="matrix(0.47971250979198327,0,0,0.47971250979198327,0,84.3876310375038)"/><path d="M710.6264430804067 489.41312471365694L677.4007865810629 489.41312471365694L677.4007865810629 484.59078984673823L682.0385344674296 484.59078984673823Q687.368483530866 484.59078984673823 688.6144456495914 482.6756999235122Q689.8604077683168 480.78368337285514 689.8604077683168 475.79983489795353L689.8604077683168 475.79983489795353L689.8604077683168 394.05087588602646Q689.8604077683168 389.89766882360846 689.0989864735402 387.9133587826754Q688.3606385513325 385.9059753691734 685.7072007058988 385.2599209372417Q683.0537628604651 384.59079313274106 677.23927297308 384.59079313274106L677.23927297308 384.59079313274106L677.23927297308 379.76845826582235L706.6347496259716 379.76845826582235L740.0219197332983 461.33283029719763L740.3680203218332 461.33283029719763L773.9167040371428 379.76845826582235L801.8354848456192 379.76845826582235L801.8354848456192 384.59079313274106Q796.020994958234 384.59079313274106 793.2752636225243 385.2599209372417Q790.5295322868147 385.9059753691734 789.791184364607 387.9133587826754Q789.0297630698304 389.89766882360846 789.0297630698304 394.05087588602646L789.0297630698304 394.05087588602646L789.0297630698304 475.2922207014358Q789.0297630698304 479.28391415587083 789.860404482314 481.2682241968039Q790.6910458947976 483.27560761030594 793.4367772305072 483.9216620422376Q796.1825085662169 484.59078984673823 801.8354848456192 484.59078984673823L801.8354848456192 484.59078984673823L801.8354848456192 489.41312471365694L761.134055633923 489.41312471365694L761.134055633923 484.59078984673823Q767.271572737274 484.59078984673823 769.9250105827077 483.85244192453064Q772.5784484281414 483.091020629754 773.3398697229181 481.10671058882093Q774.0782176451257 479.12240054788793 774.0782176451257 475.2922207014358L774.0782176451257 475.2922207014358L774.0782176451257 394.7200036905271L773.7551904291599 394.7200036905271L736.8608676913468 485.09840404325604L733.8844026299473 485.09840404325604L696.5055390681855 394.7200036905271L696.1594384796507 394.7200036905271L696.1594384796507 475.79983489795353Q696.1594384796507 481.2682241968039 697.3361804806691 482.9295070217711Q698.4898491091186 484.59078984673823 704.4658526044866 484.59078984673823L704.4658526044866 484.59078984673823L710.6264430804067 484.59078984673823L710.6264430804067 489.41312471365694ZM827.2392680440757 524.4615776459509L827.2392680440757 524.4615776459509Q822.9245473736748 524.4615776459509 819.7634953317234 522.8002948209837Q816.602443289772 521.1390119960165 814.9411604648049 518.4855741505828Q813.2798776398377 515.8321363051491 813.2798776398377 512.6710842631976L813.2798776398377 512.6710842631976Q813.2798776398377 508.67939080876255 815.7025817595814 506.02595296332885Q818.1022125067562 503.3725151178951 821.7708787452254 503.3725151178951L821.7708787452254 503.3725151178951Q824.585830198642 503.3725151178951 826.8239473378339 505.19531155084525Q829.062064477026 507.01810798379535 829.062064477026 510.50218724171265L829.062064477026 510.50218724171265Q829.062064477026 512.3480570472318 828.5775236530772 513.5017256756812Q828.0699094565593 514.6553943041306 827.4930751423346 515.4168155989073Q826.91624082811 516.1551635211149 826.91624082811 517.3319055221333L826.91624082811 517.3319055221333Q826.91624082811 518.4855741505828 827.7468822405935 518.9008948568246Q828.5775236530772 519.3162155630664 829.7311922815265 519.3162155630664L829.7311922815265 519.3162155630664Q833.053757931461 519.3162155630664 835.13036146267 516.4089706193738Q837.206964993879 513.5017256756812 840.2065034278476 505.35682515882814L840.2065034278476 505.35682515882814L871.1017492977235 422.1311703024857Q872.2554179261729 419.3162188490691 871.4247765136893 417.8856697497918Q870.5941351012057 416.47819402308346 867.940697255772 416.47819402308346L867.940697255772 416.47819402308346L860.9725387399374 416.47819402308346L860.9725387399374 411.6558591561648L889.2143467643796 411.6558591561648L889.2143467643796 416.47819402308346Q885.0611397019616 416.47819402308346 882.8922426804767 417.14732182758416Q880.7464190315607 417.8164496320848 879.5004569128353 419.63924606503497Q878.2544947941099 421.46204249798507 876.9162391851086 424.94612175590237L876.9162391851086 424.94612175590237L846.8516347277163 503.02641452936024Q845.0288382947662 507.687235788296 843.3675554697988 511.5866357524551Q841.7062726448318 515.4860357166142 839.5373756233469 518.3932806603068Q837.3684786018619 521.3005256039994 834.4612336581692 522.8925883112595Q831.5539887144768 524.4615776459509 827.2392680440757 524.4615776459509ZM855.1580488525522 472.2926822674672L847.520762532217 495.2276146010421L819.9250089397063 424.30006732397067Q818.771340311257 420.97750167403626 817.5253781925315 419.3162188490691Q816.2794160738061 417.6549360241019 814.2951060328732 417.0550283373082Q812.2877226193712 416.47819402308346 808.4806161454879 416.47819402308346L808.4806161454879 416.47819402308346L808.4806161454879 411.6558591561648L843.1829684892471 411.6558591561648L843.1829684892471 416.47819402308346L837.5530655824138 416.47819402308346Q834.7150407564282 416.47819402308346 834.1382064422035 417.97796324006777Q833.5613721279788 419.477732457052 834.5535271484453 421.9696566945028L834.5535271484453 421.9696566945028L852.3200240265666 472.2926822674672L855.1580488525522 472.2926822674672ZM979.2466465285736 489.41312471365694L938.3837037088947 489.41312471365694L938.3837037088947 484.59078984673823Q944.5212208122456 484.59078984673823 947.1977320302483 483.9216620422376Q949.851169875682 483.27560761030594 950.5202976801827 481.2682241968039Q951.1663521121144 479.28391415587083 951.1663521121144 475.2922207014358L951.1663521121144 475.2922207014358L951.1663521121144 394.05087588602646Q951.1663521121144 390.05918243159135 950.5202976801827 388.07487239065836Q949.851169875682 386.0905623497253 947.1977320302483 385.32914105494865Q944.5212208122456 384.59079313274106 938.3837037088947 384.59079313274106L938.3837037088947 384.59079313274106L938.3837037088947 379.76845826582235L979.2466465285736 379.76845826582235L979.2466465285736 384.59079313274106Q973.2706430332055 384.59079313274106 970.5249116974959 385.32914105494865Q967.7791803617863 386.0905623497253 967.1331259298546 388.07487239065836Q966.463998125354 390.05918243159135 966.463998125354 394.05087588602646L966.463998125354 394.05087588602646L966.463998125354 429.0993288183203L1019.9480757402698 429.0993288183203L1019.9480757402698 394.05087588602646Q1019.9480757402698 390.05918243159135 1019.2789479357691 388.07487239065836Q1018.6328935038374 386.0905623497253 1015.9563822858347 385.32914105494865Q1013.302944440401 384.59079313274106 1007.16542733705 384.59079313274106L1007.16542733705 384.59079313274106L1007.16542733705 379.76845826582235L1048.0283701567291 379.76845826582235L1048.0283701567291 384.59079313274106Q1042.052366661361 384.59079313274106 1039.3066353256513 385.32914105494865Q1036.5609039899418 386.0905623497253 1035.8917761854411 388.07487239065836Q1035.2457217535093 390.05918243159135 1035.2457217535093 394.05087588602646L1035.2457217535093 394.05087588602646L1035.2457217535093 475.2922207014358Q1035.2457217535093 479.28391415587083 1035.984069675717 481.2682241968039Q1036.7224175979247 483.27560761030594 1039.3989288159273 483.9216620422376Q1042.052366661361 484.59078984673823 1048.0283701567291 484.59078984673823L1048.0283701567291 484.59078984673823L1048.0283701567291 489.41312471365694L1007.16542733705 489.41312471365694L1007.16542733705 484.59078984673823Q1013.302944440401 484.59078984673823 1015.9563822858347 483.9216620422376Q1018.6328935038374 483.27560761030594 1019.2789479357691 481.2682241968039Q1019.9480757402698 479.28391415587083 1019.9480757402698 475.2922207014358L1019.9480757402698 475.2922207014358L1019.9480757402698 435.4214329022232L966.463998125354 435.4214329022232L966.463998125354 475.2922207014358Q966.463998125354 479.28391415587083 967.1331259298546 481.2682241968039Q967.7791803617863 483.27560761030594 970.5249116974959 483.9216620422376Q973.2706430332055 484.59078984673823 979.2466465285736 484.59078984673823L979.2466465285736 484.59078984673823L979.2466465285736 489.41312471365694ZM1120.6172002587678 491.0744075386241L1120.6172002587678 491.0744075386241Q1117.6407351973683 491.0744075386241 1115.2180310776243 490.24376612614054Q1112.8184003304495 489.41312471365694 1111.4109246037413 486.5981732602403Q1110.003448877033 483.7601484342547 1110.003448877033 477.7841449388866L1110.003448877033 477.7841449388866L1110.003448877033 432.6064814488066Q1110.003448877033 424.6230945399365 1106.6808832270985 420.21608037925967Q1103.3583175771641 415.8090662185828 1094.8673164717763 415.8090662185828L1094.8673164717763 415.8090662185828Q1090.7141094093583 415.8090662185828 1087.322323641717 416.89351472932526Q1083.9074645015066 417.97796324006777 1081.8308609702976 419.477732457052Q1079.7542574390886 420.97750167403626 1079.7542574390886 422.29268391046867L1079.7542574390886 422.29268391046867Q1079.7542574390886 423.63093951946996 1081.000219557814 424.46158093195356Q1082.2461816765394 425.29222234443716 1083.4921437952648 426.6074045808695Q1084.7381059139902 427.94566018987086 1084.7381059139902 430.9451986238394L1084.7381059139902 430.9451986238394Q1084.7381059139902 434.4292778817567 1082.7537958730572 436.5058814129657Q1080.7464124595551 438.5824849441747 1077.100819593655 438.5824849441747L1077.100819593655 438.5824849441747Q1073.270639747203 438.5824849441747 1071.0325226080108 436.2520743147068Q1068.794405468819 433.92166368523897 1068.794405468819 429.768456622821L1068.794405468819 429.768456622821Q1068.794405468819 424.7846081479194 1072.0246776284775 420.3083738695356Q1075.2780231607048 415.8090662185828 1082.0846680685565 412.9018212748902Q1088.8913129764082 409.9945763311976 1099.366624122729 409.9945763311976L1099.366624122729 409.9945763311976Q1111.3186311134652 409.9945763311976 1117.6407351973683 414.90920468839226Q1123.9397659087022 419.80075967301786 1123.9397659087022 433.09102227275537L1123.9397659087022 433.09102227275537L1123.9397659087022 472.4772692480191Q1123.9397659087022 479.12240054788793 1125.3703150079796 481.42973780478684Q1126.7777907346876 483.7601484342547 1129.9388427766391 483.7601484342547L1129.9388427766391 483.7601484342547Q1131.4155386210546 483.7601484342547 1132.43076701409 483.43712121828884Q1133.4229220345564 483.091020629754 1134.5765906630058 482.60647980580524L1134.5765906630058 482.60647980580524L1135.7533326640244 486.75968686822324Q1133.9074628585054 487.91335549667264 1130.354163482881 489.50541820393283Q1126.7777907346876 491.0744075386241 1120.6172002587678 491.0744075386241ZM1085.084206502525 491.23592114660704L1085.084206502525 491.23592114660704Q1076.4316917891542 491.23592114660704 1070.4556882937861 487.175007574465Q1064.479684798418 483.091020629754 1064.479684798418 474.62309289693513L1064.479684798418 474.62309289693513Q1064.479684798418 466.66277936063403 1070.1326610778203 459.9253545704893Q1075.7625639846538 453.1879297803446 1086.8147094451992 448.4578884037019Q1097.8668549057447 443.7278470270592 1113.972068958899 441.7435369861262L1113.972068958899 441.7435369861262L1113.972068958899 446.7273854610277Q1096.5285992967436 449.8653641304102 1087.9914514462175 455.6798540177954Q1079.4312302231228 461.49434390518053 1079.4312302231228 470.6313994425001L1079.4312302231228 470.6313994425001Q1079.4312302231228 476.44588932988523 1082.8230159907641 479.35313427357784Q1086.2378751309745 482.2603792172704 1092.3753922343255 482.2603792172704L1092.3753922343255 482.2603792172704Q1096.8746998852785 482.2603792172704 1100.6818063591613 480.59909639230324Q1104.5119862056135 478.93781356733604 1107.742258365272 476.5381828201612Q1110.9956038974994 474.13855207298633 1113.810555350916 471.8081414435185L1113.810555350916 471.8081414435185L1113.810555350916 477.11501713438594Q1109.4958346805151 481.10671058882093 1105.0888205198382 484.26776263077244Q1100.6818063591613 487.4288146727239 1095.8825448648117 489.32083122338094Q1091.0602099978933 491.23592114660704 1085.084206502525 491.23592114660704ZM1180.6079689381386 522.6387812130007L1142.8830047878419 522.6387812130007L1142.8830047878419 517.8164463460821Q1148.3744674592613 517.8164463460821 1150.704878088729 517.2396120318574Q1153.012215345628 516.6627777176327 1153.6121230324216 514.6553943041306Q1154.1889573466465 512.6710842631976 1154.1889573466465 508.84090441674545L1154.1889573466465 508.84090441674545L1154.1889573466465 425.4537359524201Q1154.1889573466465 421.46204249798507 1153.1968023261797 420.1468602615527Q1152.1815739331444 418.80860465255137 1148.5359810672442 418.80860465255137L1148.5359810672442 418.80860465255137L1143.5521325923426 418.80860465255137L1143.5521325923426 413.9862697856327L1163.3260128839659 410.6637041356983L1167.8022471623497 410.6637041356983L1167.8022471623497 418.80860465255137L1168.3098613588675 418.80860465255137L1168.3098613588675 508.84090441674545Q1168.3098613588675 512.6710842631976 1169.048209281075 514.6553943041306Q1169.8096305758518 516.6627777176327 1172.3707749310095 517.2396120318574Q1174.9549926587363 517.8164463460821 1180.6079689381386 517.8164463460821L1180.6079689381386 517.8164463460821L1180.6079689381386 522.6387812130007ZM1188.083741650491 491.39743475458994L1188.083741650491 491.39743475458994Q1181.761637566588 491.39743475458994 1177.354623405911 489.6669318119158Q1172.9476092452342 487.91335549667264 1169.8096305758518 485.3522111415149Q1166.6485785339003 482.76799341378813 1163.8105537079148 480.4375827843203L1163.8105537079148 480.4375827843203L1163.8105537079148 471.8081414435185Q1165.4718365328818 474.3000656809693 1167.6407335543668 476.86121003612703Q1169.8096305758518 479.4454277638538 1172.6245820292684 481.52203129506273Q1175.439533482685 483.59863482627173 1178.8543926228954 484.84459694499714Q1182.2692517631058 486.09055906372254 1186.2378718449718 486.09055906372254L1186.2378718449718 486.09055906372254Q1196.5516693833097 486.09055906372254 1202.112352172436 477.62263133090363Q1207.6730349615623 469.1547035980848 1207.6730349615623 450.8805925234457L1207.6730349615623 450.8805925234457Q1207.6730349615623 434.91381870570547 1202.8507000946436 425.77676316838597Q1198.051438600294 416.6397076310664 1187.41461384599 416.6397076310664L1187.41461384599 416.6397076310664Q1181.9231511745709 416.6397076310664 1177.446916896187 418.80860465255137Q1172.9476092452342 420.97750167403626 1169.9711441838347 423.538646029194Q1166.9716057498663 426.12286375692076 1165.4718365328818 427.4380459933531L1165.4718365328818 427.4380459933531L1165.4718365328818 421.1390152820192Q1167.133119357849 419.3162188490691 1170.7094921060425 416.6397076310664Q1174.2858648542356 413.9862697856327 1179.9388411336379 411.9096662544237Q1185.5918174130402 409.8330627232147 1192.8830031448406 409.8330627232147L1192.8830031448406 409.8330627232147Q1207.6730349615623 409.8330627232147 1215.4026147721734 419.63924606503497Q1223.132194582785 429.44542940685517 1223.132194582785 448.7116955019608L1223.132194582785 448.7116955019608Q1223.132194582785 463.5017273186825 1218.7251804221078 472.96181007196793Q1214.318166261431 482.4449661978223 1206.5193663331129 486.92120047620614Q1198.6974930322258 491.39743475458994 1188.083741650491 491.39743475458994ZM1274.12434796025 522.6387812130007L1236.422457182522 522.6387812130007L1236.422457182522 517.8164463460821Q1241.8908464813726 517.8164463460821 1244.2212571108405 517.2396120318574Q1246.5516677403084 516.6627777176327 1247.1285020545329 514.6553943041306Q1247.7053363687578 512.6710842631976 1247.7053363687578 508.84090441674545L1247.7053363687578 508.84090441674545L1247.7053363687578 425.4537359524201Q1247.7053363687578 421.46204249798507 1246.7131813482913 420.1468602615527Q1245.7210263278248 418.80860465255137 1242.0754334619246 418.80860465255137L1242.0754334619246 418.80860465255137L1237.091584987023 418.80860465255137L1237.091584987023 413.9862697856327L1256.8423919060774 410.6637041356983L1261.34169955703 410.6637041356983L1261.34169955703 418.80860465255137L1261.826240380979 418.80860465255137L1261.826240380979 508.84090441674545Q1261.826240380979 512.6710842631976 1262.5876616757555 514.6553943041306Q1263.326009597963 516.6627777176327 1265.91022732569 517.2396120318574Q1268.4713716808478 517.8164463460821 1274.12434796025 517.8164463460821L1274.12434796025 517.8164463460821L1274.12434796025 522.6387812130007ZM1281.6001206726023 491.39743475458994L1281.6001206726023 491.39743475458994Q1275.3010899612682 491.39743475458994 1270.8940758005915 489.6669318119158Q1266.4870616399146 487.91335549667264 1263.326009597963 485.3522111415149Q1260.1649575560118 482.76799341378813 1257.3500061025952 480.4375827843203L1257.3500061025952 480.4375827843203L1257.3500061025952 471.8081414435185Q1259.0112889275622 474.3000656809693 1261.1801859490472 476.86121003612703Q1263.326009597963 479.4454277638538 1266.1640344239488 481.52203129506273Q1268.9789858773654 483.59863482627173 1272.3938450175756 484.84459694499714Q1275.785630785217 486.09055906372254 1279.777324239652 486.09055906372254L1279.777324239652 486.09055906372254Q1290.068048405421 486.09055906372254 1295.6518045671164 477.62263133090363Q1301.2124873562427 469.1547035980848 1301.2124873562427 450.8805925234457L1301.2124873562427 450.8805925234457Q1301.2124873562427 434.91381870570547 1296.390152489324 425.77676316838597Q1291.5678176224053 416.6397076310664 1280.9309928681014 416.6397076310664L1280.9309928681014 416.6397076310664Q1275.4626035692513 416.6397076310664 1270.9632959182986 418.80860465255137Q1266.4870616399146 420.97750167403626 1263.4875232059462 423.538646029194Q1260.5110581445465 426.12286375692076 1259.0112889275622 427.4380459933531L1259.0112889275622 427.4380459933531L1259.0112889275622 421.1390152820192Q1260.6725717525294 419.3162188490691 1264.2489445007227 416.6397076310664Q1267.8253172489158 413.9862697856327 1273.4552201557492 411.9096662544237Q1279.1081964351513 409.8330627232147 1286.4224555395208 409.8330627232147L1286.4224555395208 409.8330627232147Q1301.2124873562427 409.8330627232147 1308.942067166854 419.63924606503497Q1316.6485736048962 429.44542940685517 1316.6485736048962 448.7116955019608L1316.6485736048962 448.7116955019608Q1316.6485736048962 463.5017273186825 1312.2646328167882 472.96181007196793Q1307.8576186561113 482.4449661978223 1300.0357453552242 486.92120047620614Q1292.236945426906 491.39743475458994 1281.6001206726023 491.39743475458994ZM1341.7524029599558 524.4615776459509L1341.7524029599558 524.4615776459509Q1337.414608916986 524.4615776459509 1334.2766302476036 522.8002948209837Q1331.1155782056521 521.1390119960165 1329.454295380685 518.4855741505828Q1327.7930125557177 515.8321363051491 1327.7930125557177 512.6710842631976L1327.7930125557177 512.6710842631976Q1327.7930125557177 508.67939080876255 1330.1926433028925 506.02595296332885Q1332.6153474226362 503.3725151178951 1336.2609402885364 503.3725151178951L1336.2609402885364 503.3725151178951Q1339.0758917419532 503.3725151178951 1341.337082253714 505.19531155084525Q1343.5751993929061 507.01810798379535 1343.5751993929061 510.50218724171265L1343.5751993929061 510.50218724171265Q1343.5751993929061 512.3480570472318 1343.0675851963883 513.5017256756812Q1342.5830443724394 514.6553943041306 1341.9831366856456 515.4168155989073Q1341.4063023714211 516.1551635211149 1341.4063023714211 517.3319055221333L1341.4063023714211 517.3319055221333Q1341.4063023714211 518.4855741505828 1342.2369437839047 518.9008948568246Q1343.0675851963883 519.3162155630664 1344.2443271974066 519.3162155630664L1344.2443271974066 519.3162155630664Q1347.566892847341 519.3162155630664 1349.64349637855 516.4089706193738Q1351.720099909759 513.5017256756812 1354.6965649711588 505.35682515882814L1354.6965649711588 505.35682515882814L1385.5918108410347 422.1311703024857Q1386.768552842053 419.3162188490691 1385.9379114295693 417.8856697497918Q1385.1072700170857 416.47819402308346 1382.453832171652 416.47819402308346L1382.453832171652 416.47819402308346L1375.4626002832485 416.47819402308346L1375.4626002832485 411.6558591561648L1403.7044083076905 411.6558591561648L1403.7044083076905 416.47819402308346Q1399.5512012452728 416.47819402308346 1397.4053775963569 417.14732182758416Q1395.2364805748718 417.8164496320848 1393.9905184561462 419.63924606503497Q1392.7445563374208 421.46204249798507 1391.4063007284196 424.94612175590237L1391.4063007284196 424.94612175590237L1361.3416962710276 503.02641452936024Q1359.5188998380772 507.687235788296 1357.85761701311 511.5866357524551Q1356.1963341881428 515.4860357166142 1354.0274371666578 518.3932806603068Q1351.881613517742 521.3005256039994 1348.9743685740495 522.8925883112595Q1346.067123630357 524.4615776459509 1341.7524029599558 524.4615776459509ZM1369.6481103958631 472.2926822674672L1362.010824075528 495.2276146010421L1334.4381438555865 424.30006732397067Q1333.261401854568 420.97750167403626 1332.0154397358426 419.3162188490691Q1330.7694776171174 417.6549360241019 1328.7851675761842 417.0550283373082Q1326.8008575352512 416.47819402308346 1322.9706776887992 416.47819402308346L1322.9706776887992 416.47819402308346L1322.9706776887992 411.6558591561648L1357.6961034051271 411.6558591561648L1357.6961034051271 416.47819402308346L1352.0431271257248 416.47819402308346Q1349.2281756723082 416.47819402308346 1348.6282679855144 417.97796324006777Q1348.05143367129 419.477732457052 1349.0435886917562 421.9696566945028L1349.0435886917562 421.9696566945028L1366.8331589424467 472.2926822674672L1369.6481103958631 472.2926822674672ZM1495.5825778774038 489.41312471365694L1452.8737652522057 489.41312471365694L1452.8737652522057 484.59078984673823Q1458.8728421201426 484.59078984673823 1461.5262799655764 483.85244192453064Q1464.17971781101 483.091020629754 1464.9180657332179 481.10671058882093Q1465.6794870279946 479.12240054788793 1465.6794870279946 475.2922207014358L1465.6794870279946 475.2922207014358L1465.6794870279946 394.05087588602646Q1465.6794870279946 390.05918243159135 1464.9180657332179 387.98257890038235Q1464.17971781101 385.9059753691734 1461.4339864753006 385.2599209372417Q1458.688255139591 384.59079313274106 1452.8737652522057 384.59079313274106L1452.8737652522057 384.59079313274106L1452.8737652522057 379.76845826582235L1494.0828086604197 379.76845826582235Q1504.5581198067405 379.76845826582235 1512.1031126367998 382.09886889529025Q1519.6711788394282 384.4292795247581 1524.4935137063467 388.58248658717605Q1529.2927752006963 392.73569364959405 1531.6231858301642 398.45789004670326Q1533.9535964596323 404.18008644381246 1533.9535964596323 411.00980472423316L1533.9535964596323 411.00980472423316Q1533.9535964596323 418.13947684805066 1531.4616722221813 424.30006732397067Q1528.9697479847305 430.43758442732167 1523.893606019553 435.0984056862574Q1518.8405374269446 439.7361535726241 1510.9494440083504 442.32037130035087Q1503.0583505897562 444.8815156555086 1492.2600122274696 444.8815156555086L1492.2600122274696 444.8815156555086L1480.954059668665 444.8815156555086L1480.954059668665 475.2922207014358Q1480.954059668665 479.28391415587083 1481.7847010811488 481.2682241968039Q1482.6153424936322 483.27560761030594 1485.7763945355837 483.9216620422376Q1488.937446577535 484.59078984673823 1495.5825778774038 484.59078984673823L1495.5825778774038 484.59078984673823L1495.5825778774038 489.41312471365694ZM1480.954059668665 391.3974380405927L1480.954059668665 438.7439985521576L1491.267857207003 438.7439985521576Q1504.050505610223 438.7439985521576 1510.6956369100915 432.1911607425648Q1517.34076820996 425.615249560403 1517.34076820996 412.00195974469966L1517.34076820996 412.00195974469966Q1517.34076820996 398.71169714496216 1510.8571505180744 392.13578596280036Q1504.3735328261887 385.58294815320755 1490.9217566184682 385.58294815320755L1490.9217566184682 385.58294815320755Q1484.2766253185994 385.58294815320755 1482.6153424936322 387.0827173701918Q1480.954059668665 388.58248658717605 1480.954059668665 391.3974380405927L1480.954059668665 391.3974380405927ZM1581.1386433632142 489.41312471365694L1544.244320625401 489.41312471365694L1544.244320625401 484.59078984673823Q1549.7357832968205 484.59078984673823 1552.1354140439953 483.9216620422376Q1554.558118163739 483.27560761030594 1555.134952477964 481.36051768707983Q1555.7117867921886 479.4454277638538 1555.7117867921886 475.61524791740163L1555.7117867921886 475.61524791740163L1555.7117867921886 389.89766882360846Q1555.7117867921886 385.58294815320755 1554.719631771722 384.17547242649925Q1553.7274767512556 382.76799669979096 1550.727938317287 382.76799669979096L1550.727938317287 382.76799669979096L1545.0749620378847 382.76799669979096L1545.0749620378847 377.78414822488935L1565.194942918043 374.46158257495495L1569.8326908044096 374.46158257495495L1569.8326908044096 475.61524791740163Q1569.8326908044096 479.4454277638538 1570.5018186089105 481.36051768707983Q1571.170946413411 483.27560761030594 1573.5705771605858 483.9216620422376Q1575.9932812803297 484.59078984673823 1581.1386433632142 484.59078984673823L1581.1386433632142 484.59078984673823L1581.1386433632142 489.41312471365694ZM1650.4049078153184 491.0744075386241L1650.4049078153184 491.0744075386241Q1647.428442753919 491.0744075386241 1645.005738634175 490.24376612614054Q1642.6061078870002 489.41312471365694 1641.1986321602917 486.5981732602403Q1639.7680830610145 483.7601484342547 1639.7680830610145 477.7841449388866L1639.7680830610145 477.7841449388866L1639.7680830610145 432.6064814488066Q1639.7680830610145 424.6230945399365 1636.4455174110801 420.21608037925967Q1633.1229517611457 415.8090662185828 1624.6550240283268 415.8090662185828L1624.6550240283268 415.8090662185828Q1620.501816965909 415.8090662185828 1617.1100311982677 416.89351472932526Q1613.6951720580573 417.97796324006777 1611.6185685268483 419.477732457052Q1609.5419649956393 420.97750167403626 1609.5419649956393 422.29268391046867L1609.5419649956393 422.29268391046867Q1609.5419649956393 423.63093951946996 1610.7879271143647 424.46158093195356Q1612.0338892330901 425.29222234443716 1613.2798513518155 426.6074045808695Q1614.525813470541 427.94566018987086 1614.525813470541 430.9451986238394L1614.525813470541 430.9451986238394Q1614.525813470541 434.4292778817567 1612.541503429608 436.5058814129657Q1610.5341200161058 438.5824849441747 1606.8885271502054 438.5824849441747L1606.8885271502054 438.5824849441747Q1603.0583473037536 438.5824849441747 1600.8202301645615 436.2520743147068Q1598.5821130253696 433.92166368523897 1598.5821130253696 429.768456622821L1598.5821130253696 429.768456622821Q1598.5821130253696 424.7846081479194 1601.812385185028 420.3083738695356Q1605.0657307172555 415.8090662185828 1611.8723756251072 412.9018212748902Q1618.679020532959 409.9945763311976 1629.1543316792797 409.9945763311976L1629.1543316792797 409.9945763311976Q1641.1063386700162 409.9945763311976 1647.428442753919 414.90920468839226Q1653.7274734652528 419.80075967301786 1653.7274734652528 433.09102227275537L1653.7274734652528 433.09102227275537L1653.7274734652528 472.4772692480191Q1653.7274734652528 479.12240054788793 1655.134949191961 481.42973780478684Q1656.5654982912383 483.7601484342547 1659.703476960621 483.7601484342547L1659.703476960621 483.7601484342547Q1661.2032461776053 483.7601484342547 1662.1954011980715 483.43712121828884Q1663.2106295911071 483.091020629754 1664.3642982195565 482.60647980580524L1664.3642982195565 482.60647980580524L1665.517966848006 486.75968686822324Q1663.6951704150558 487.91335549667264 1660.1187976668627 489.50541820393283Q1656.5654982912383 491.0744075386241 1650.4049078153184 491.0744075386241ZM1614.8488406865067 491.23592114660704L1614.8488406865067 491.23592114660704Q1606.219399345705 491.23592114660704 1600.2433958503368 487.175007574465Q1594.2673923549687 483.091020629754 1594.2673923549687 474.62309289693513L1594.2673923549687 474.62309289693513Q1594.2673923549687 466.66277936063403 1599.897295261802 459.9253545704893Q1605.5502715412042 453.1879297803446 1616.60241700175 448.4578884037019Q1627.6545624622954 443.7278470270592 1643.7597765154496 441.7435369861262L1643.7597765154496 441.7435369861262L1643.7597765154496 446.7273854610277Q1626.316306853294 449.8653641304102 1617.7560856301993 455.6798540177954Q1609.2189377796735 461.49434390518053 1609.2189377796735 470.6313994425001L1609.2189377796735 470.6313994425001Q1609.2189377796735 476.44588932988523 1612.6107235473148 479.35313427357784Q1616.025582687525 482.2603792172704 1622.163099790876 482.2603792172704L1622.163099790876 482.2603792172704Q1626.6624074418291 482.2603792172704 1630.469513915712 480.59909639230324Q1634.2996937621642 478.93781356733604 1637.5299659218226 476.5381828201612Q1640.78331145405 474.13855207298633 1643.5982629074667 471.8081414435185L1643.5982629074667 471.8081414435185L1643.5982629074667 477.11501713438594Q1639.2835422370658 481.10671058882093 1634.876528076389 484.26776263077244Q1630.469513915712 487.4288146727239 1625.6471790487935 489.32083122338094Q1620.8479175544437 491.23592114660704 1614.8488406865067 491.23592114660704ZM1711.3878315151555 491.23592114660704L1711.3878315151555 491.23592114660704Q1699.7588517403851 491.23592114660704 1691.6831713412394 486.25207267170543Q1683.6305643146623 481.2682241968039 1679.56965074252 472.2926822674672Q1675.4856637978091 463.34021371069963 1675.4856637978091 451.2036197394115L1675.4856637978091 451.2036197394115Q1675.4856637978091 442.3895914180578 1677.7468543095702 434.8445985879985Q1679.9849714487618 427.2765323853702 1684.4612057271456 421.7158495962439Q1688.9605133780988 416.1551668071176 1696.090185501916 412.9941147651662Q1703.2429309983027 409.8330627232147 1712.8645273595707 409.8330627232147L1712.8645273595707 409.8330627232147Q1720.847914268441 409.8330627232147 1727.077724862068 412.00195974469966Q1733.307535455695 414.1477833936156 1736.9531283215952 418.13947684805066Q1740.6217945600647 422.1311703024857 1740.6217945600647 427.94566018987086L1740.6217945600647 427.94566018987086Q1740.6217945600647 432.09886725228887 1738.4528975385792 434.6830849800156Q1736.3070738896636 437.2442293351734 1731.9692798466936 437.2442293351734L1731.9692798466936 437.2442293351734Q1727.8160727842755 437.2442293351734 1725.6702491353599 434.91381870570547Q1723.5013521138749 432.6064814488066 1723.5013521138749 429.0993288183203L1723.5013521138749 429.0993288183203Q1723.5013521138749 426.4458909728866 1724.424287016634 424.94612175590237Q1725.3241485468247 423.46942591148706 1726.2470834495844 422.45419751845156Q1727.170018352344 421.46204249798507 1727.170018352344 420.1468602615527L1727.170018352344 420.1468602615527Q1727.170018352344 417.8164496320848 1723.7551592121335 416.4089739053765Q1720.3403000719231 414.9784248060992 1715.0334243810557 414.9784248060992L1715.0334243810557 414.9784248060992Q1708.0652658652211 414.9784248060992 1702.6660966840777 418.0702567303437Q1697.2669275029343 421.1390152820192 1694.1750955786902 428.61478799437157Q1691.1063370270144 436.0905607067239 1691.1063370270144 449.3808233064614L1691.1063370270144 449.3808233064614Q1691.1063370270144 462.0019581016983 1694.013581970707 469.8007580300165Q1696.9208269143996 477.62263133090363 1702.319996095543 481.10671058882093Q1707.7191652766865 484.59078984673823 1715.0334243810557 484.59078984673823L1715.0334243810557 484.59078984673823Q1722.5091970934081 484.59078984673823 1727.077724862068 481.93735200130453Q1731.6462526307278 479.28391415587083 1734.1381768681786 475.7075414076776Q1736.6301011056294 472.13116865948433 1737.6222561260956 469.8007580300165L1737.6222561260956 469.8007580300165L1741.613949580531 472.13116865948433Q1740.94482177603 474.3000656809693 1739.1220253430802 477.46111772292073Q1737.2992289101298 480.59909639230324 1733.8843697699199 483.7601484342547Q1730.4925840022784 486.92120047620614 1725.001121330859 489.0900974976911Q1719.5096586594395 491.23592114660704 1711.3878315151555 491.23592114660704ZM1790.9448201330292 491.23592114660704L1790.9448201330292 491.23592114660704Q1772.8552960389416 491.23592114660704 1764.2950748158469 480.69138988257913Q1755.7348535927522 470.14685861855133 1755.7348535927522 451.3651333473945L1755.7348535927522 451.3651333473945Q1755.7348535927522 438.42097133619177 1759.634253556911 429.0993288183203Q1763.5336535210704 419.80075967301786 1771.4247469396646 414.8169111981163Q1779.3158403582584 409.8330627232147 1791.1294071135808 409.8330627232147L1791.1294071135808 409.8330627232147Q1801.5816448873325 409.8330627232147 1808.0652625792186 413.40943547140796Q1814.5488802711043 416.9858082196012 1818.0329595290218 422.86951822469337Q1821.5170387869389 428.77630160235447 1822.7630009056643 435.74446011818907Q1824.0089630243897 442.73569200659267 1824.0089630243897 449.7038505224273L1824.0089630243897 449.7038505224273L1824.0089630243897 451.2036197394115L1768.1944747800057 451.2036197394115L1768.3559883879889 445.8967440485441L1808.572876775736 445.8967440485441Q1808.572876775736 435.929047098741 1806.9808140684763 429.03010870061337Q1805.4118247337847 422.1311703024857 1801.6739383776085 418.55479755429246Q1797.9360520214323 414.9784248060992 1791.290920721564 414.9784248060992L1791.290920721564 414.9784248060992Q1784.29968883316 414.9784248060992 1779.9157480450522 418.80860465255137Q1775.5087338843755 422.63878449900346 1773.4321303531665 430.02226372107987Q1771.3555268219575 437.40574294315627 1771.1940132139748 448.204081305443L1771.1940132139748 448.204081305443Q1771.1940132139748 455.3568268018295 1772.093874744165 461.8404444937153Q1773.0168096469247 468.3240621856012 1775.5779540020822 473.4694242684857Q1778.162171729809 478.6147863513702 1782.892213106452 481.61432478533874Q1787.6222544830944 484.59078984673823 1795.2826141759988 484.59078984673823L1795.2826141759988 484.59078984673823Q1802.412286299816 484.59078984673823 1807.0731075587519 482.02964549158054Q1811.7108554451188 479.4454277638538 1814.5488802711043 475.2922207014358Q1817.3638317245209 471.13901363901783 1818.8636009415054 466.82429296861693L1818.8636009415054 466.82429296861693L1823.3398352198888 468.8086030095499Q1821.5170387869389 474.4615792889522 1817.9406660387458 479.6069413718367Q1814.3873666631216 484.7523034547212 1807.9729690889426 488.0056489869486Q1801.5816448873325 491.23592114660704 1790.9448201330292 491.23592114660704Z " fill="#75fa50" transform="matrix(0.47971250979198327,0,0,0.47971250979198327,0,84.3876310375038)"/></g></svg>